<svg width="96" height="34" viewBox="0 0 96 34" fill="none" xmlns="http://www.w3.org/2000/svg">
<path d="M12.492 26.324C10.356 26.324 8.448 25.916 6.768 25.1C5.112 24.284 3.816 23.144 2.88 21.68C1.944 20.216 1.476 18.548 1.476 16.676V10.052C1.476 8.18 1.932 6.524 2.844 5.084C3.78 3.62 5.064 2.492 6.696 1.7C8.328 0.883999 10.2 0.475998 12.312 0.475998C14.424 0.475998 16.296 0.799998 17.928 1.448C19.584 2.072 20.868 2.96 21.78 4.112C22.692 5.24 23.148 6.536 23.148 8C23.148 8.888 22.848 9.596 22.248 10.124C21.672 10.628 20.892 10.88 19.908 10.88C19.428 10.88 18.9 10.808 18.324 10.664C18.372 10.088 18.396 9.524 18.396 8.972C18.396 7.7 17.832 6.668 16.704 5.876C15.576 5.084 14.112 4.688 12.312 4.688C10.536 4.688 9.084 5.192 7.956 6.2C6.852 7.184 6.3 8.468 6.3 10.052V16.676C6.3 18.284 6.876 19.592 8.028 20.6C9.18 21.608 10.668 22.112 12.492 22.112C14.292 22.112 15.756 21.716 16.884 20.924C18.012 20.132 18.576 19.112 18.576 17.864C18.576 17.288 18.552 16.736 18.504 16.208C19.104 16.088 19.608 16.028 20.016 16.028C21.024 16.028 21.828 16.292 22.428 16.82C23.028 17.348 23.328 18.068 23.328 18.98C23.328 20.396 22.872 21.668 21.96 22.796C21.048 23.9 19.764 24.764 18.108 25.388C16.476 26.012 14.604 26.324 12.492 26.324ZM36.0557 11.564C34.6397 11.564 33.4877 11.948 32.5997 12.716C31.7117 13.46 31.2677 14.396 31.2677 15.524V23.588C31.2677 24.548 30.9077 25.244 30.1877 25.676C29.4677 26.108 28.3397 26.324 26.8037 26.324V11.132C26.8037 10.028 27.1517 9.176 27.8477 8.576C28.5677 7.976 29.6477 7.676 31.0877 7.676V9.8C30.7277 10.208 30.4397 10.604 30.2237 10.988L30.4397 11.132C31.9517 8.828 33.8477 7.676 36.1277 7.676C37.1597 7.676 37.9397 7.952 38.4677 8.504C38.9957 9.032 39.2597 9.704 39.2597 10.52C39.2597 11.144 39.0917 11.672 38.7557 12.104C38.1077 11.744 37.2077 11.564 36.0557 11.564ZM44.4167 5.984C43.5527 5.984 42.8327 5.732 42.2567 5.228C41.7047 4.7 41.4287 4.028 41.4287 3.212C41.4287 2.42 41.7047 1.772 42.2567 1.268C42.8327 0.739998 43.5527 0.475998 44.4167 0.475998C45.2807 0.475998 45.9887 0.739998 46.5407 1.268C47.1167 1.772 47.4047 2.42 47.4047 3.212C47.4047 4.028 47.1167 4.7 46.5407 5.228C45.9887 5.732 45.2807 5.984 44.4167 5.984ZM42.1487 10.412C42.1487 9.428 42.5207 8.732 43.2647 8.324C44.0087 7.892 45.1367 7.676 46.6487 7.676V23.588C46.6487 24.548 46.2767 25.244 45.5327 25.676C44.7887 26.108 43.6607 26.324 42.1487 26.324V10.412ZM58.9672 26.324C56.6632 26.324 54.8032 25.916 53.3872 25.1C51.9952 24.26 51.2872 23.144 51.2632 21.752C51.2632 21.152 51.5032 20.648 51.9832 20.24C52.4872 19.832 53.2792 19.616 54.3592 19.592C54.5752 20.648 55.0792 21.464 55.8712 22.04C56.6632 22.592 57.6232 22.868 58.7512 22.868C59.9752 22.868 60.9352 22.712 61.6312 22.4C62.3272 22.088 62.6752 21.62 62.6752 20.996C62.6752 20.42 62.3872 19.94 61.8112 19.556C61.2592 19.172 60.1552 18.788 58.4992 18.404C56.6992 17.972 55.2952 17.54 54.2872 17.108C53.3032 16.676 52.5712 16.124 52.0912 15.452C51.6112 14.78 51.3712 13.892 51.3712 12.788C51.3712 11.252 52.0192 10.016 53.3152 9.08C54.6112 8.144 56.3872 7.676 58.6432 7.676C60.8272 7.676 62.6392 8.072 64.0792 8.864C65.5192 9.632 66.2392 10.664 66.2392 11.96C66.2392 12.608 65.9992 13.088 65.5192 13.4C65.0392 13.712 64.2472 13.88 63.1432 13.904C62.9032 12.944 62.4472 12.224 61.7752 11.744C61.1032 11.264 60.1552 11.024 58.9312 11.024C58.0192 11.024 57.2272 11.18 56.5552 11.492C55.9072 11.804 55.5832 12.212 55.5832 12.716C55.5832 13.244 55.8592 13.652 56.4112 13.94C56.9632 14.228 57.9232 14.516 59.2912 14.804C61.9792 15.38 63.9232 16.148 65.1232 17.108C66.3472 18.068 66.9592 19.376 66.9592 21.032C66.9592 22.64 66.2392 23.924 64.7992 24.884C63.3832 25.844 61.4392 26.324 58.9672 26.324ZM70.1865 10.772C70.1865 9.884 70.5345 9.152 71.2305 8.576C71.9265 7.976 72.9585 7.676 74.3265 7.676V9.62C73.9185 10.172 73.6905 10.496 73.6425 10.592L73.7865 10.736C74.5545 9.728 75.3945 8.972 76.3065 8.468C77.2425 7.94 78.3945 7.676 79.7625 7.676C81.0825 7.676 82.2465 7.952 83.2545 8.504C84.2865 9.032 85.0905 9.788 85.6665 10.772C86.2425 11.756 86.5305 12.884 86.5305 14.156V19.844C86.5305 21.14 86.2065 22.28 85.5585 23.264C84.9345 24.248 84.0705 25.004 82.9665 25.532C81.8625 26.06 80.6145 26.324 79.2225 26.324C78.3345 26.324 77.4105 26.144 76.4505 25.784C75.5145 25.4 74.7225 24.884 74.0745 24.236L73.9305 24.416C74.0985 24.656 74.3625 24.908 74.7225 25.172V30.5C74.7225 32.516 73.2105 33.524 70.1865 33.524V10.772ZM78.3585 22.436C79.5345 22.436 80.4465 22.184 81.0945 21.68C81.7425 21.176 82.0665 20.468 82.0665 19.556V14.444C82.0665 13.508 81.7425 12.8 81.0945 12.32C80.4705 11.816 79.5585 11.564 78.3585 11.564C77.2785 11.564 76.3905 11.828 75.6945 12.356C74.9985 12.86 74.6505 13.496 74.6505 14.264V19.736C74.6505 20.48 74.9865 21.116 75.6585 21.644C76.3545 22.172 77.2545 22.436 78.3585 22.436Z" fill="#DEA63A"/>
<line x1="91" x2="91" y2="10" stroke="#DEA63A" stroke-width="2"/>
<line x1="86" y1="5" x2="96" y2="5" stroke="#DEA63A" stroke-width="2"/>
</svg>
