<svg width="102" height="102" viewBox="0 0 102 102" fill="none" xmlns="http://www.w3.org/2000/svg">
<circle cx="51" cy="51" r="51" fill="#DEA63A"/>
<path d="M62.8533 40.2436C62.1423 39.5323 61.2982 38.9681 60.3691 38.5831C59.44 38.1981 58.4442 38 57.4385 38C56.4328 38 55.4369 38.1981 54.5078 38.5831C53.5787 38.9681 52.7346 39.5323 52.0236 40.2436L50.5481 41.7192L49.0726 40.2436C47.6365 38.8075 45.6887 38.0007 43.6578 38.0007C41.6268 38.0007 39.679 38.8075 38.2429 40.2436C36.8068 41.6798 36 43.6275 36 45.6585C36 47.6895 36.8068 49.6372 38.2429 51.0733L39.7184 52.5489L50.5481 63.3785L61.3778 52.5489L62.8533 51.0733C63.5646 50.3624 64.1289 49.5182 64.5138 48.5891C64.8988 47.66 65.097 46.6642 65.097 45.6585C65.097 44.6528 64.8988 43.657 64.5138 42.7279C64.1289 41.7988 63.5646 40.9546 62.8533 40.2436V40.2436Z" stroke="white" stroke-width="2" stroke-linecap="round" stroke-linejoin="round"/>
</svg>
