<svg width="102" height="102" viewBox="0 0 102 102" fill="none" xmlns="http://www.w3.org/2000/svg">
<circle cx="51" cy="51" r="51" fill="#DEA63A"/>
<path d="M51 36V65.3333" stroke="white" stroke-width="2" stroke-linecap="round" stroke-linejoin="round"/>
<path d="M57.6667 41.333H47.6667C46.429 41.333 45.242 41.8247 44.3668 42.6998C43.4917 43.575 43 44.762 43 45.9997C43 47.2374 43.4917 48.4243 44.3668 49.2995C45.242 50.1747 46.429 50.6663 47.6667 50.6663H54.3333C55.571 50.6663 56.758 51.158 57.6332 52.0332C58.5083 52.9083 59 54.0953 59 55.333C59 56.5707 58.5083 57.7577 57.6332 58.6328C56.758 59.508 55.571 59.9997 54.3333 59.9997H43" stroke="white" stroke-width="2" stroke-linecap="round" stroke-linejoin="round"/>
</svg>
