<svg width="102" height="102" viewBox="0 0 102 102" fill="none" xmlns="http://www.w3.org/2000/svg">
<circle cx="51" cy="51" r="51" fill="#DEA63A"/>
<path d="M44.7822 64.1289H40.7129C39.9934 64.1289 39.3034 63.8431 38.7946 63.3343C38.2858 62.8255 38 62.1355 38 61.416V51.9209C38 51.2014 38.2858 50.5113 38.7946 50.0026C39.3034 49.4938 39.9934 49.208 40.7129 49.208H44.7822M54.2773 46.4951V41.0693C54.2773 39.9901 53.8486 38.955 53.0854 38.1919C52.3223 37.4287 51.2872 37 50.208 37L44.7822 49.208V64.1289H60.0829C60.7372 64.1363 61.372 63.907 61.8706 63.4832C62.3691 63.0595 62.6977 62.4698 62.7958 61.8229L64.6677 49.6149C64.7267 49.2261 64.7005 48.8291 64.5908 48.4514C64.4812 48.0738 64.2907 47.7244 64.0327 47.4277C63.7746 47.1309 63.4551 46.8938 63.0963 46.7328C62.7375 46.5717 62.348 46.4907 61.9548 46.4951H54.2773Z" stroke="white" stroke-width="2" stroke-linecap="round" stroke-linejoin="round"/>
</svg>
