<svg width="0" height="0" class="hidden">
  <symbol fill="none" xmlns="http://www.w3.org/2000/svg" viewBox="0 0 1780 40" id="Group-11">
    <path fill-rule="evenodd" clip-rule="evenodd" d="M1476 34V30H1474V34H1470V36H1474V40H1476V36H1480V34H1476ZM1476 4V0H1474V4H1470V6H1474V10H1476V6H1480V4H1476ZM1446 34V30H1444V34H1440V36H1444V40H1446V36H1450V34H1446ZM1446 4V0H1444V4H1440V6H1444V10H1446V6H1450V4H1446Z" fill="#707178"></path>
    <path fill-rule="evenodd" clip-rule="evenodd" d="M1116 34V30H1114V34H1110V36H1114V40H1116V36H1120V34H1116ZM1116 4V0H1114V4H1110V6H1114V10H1116V6H1120V4H1116ZM1086 34V30H1084V34H1080V36H1084V40H1086V36H1090V34H1086ZM1086 4V0H1084V4H1080V6H1084V10H1086V6H1090V4H1086Z" fill="#707178"></path>
    <path fill-rule="evenodd" clip-rule="evenodd" d="M756 34V30H754V34H750V36H754V40H756V36H760V34H756ZM756 4V0H754V4H750V6H754V10H756V6H760V4H756ZM726 34V30H724V34H720V36H724V40H726V36H730V34H726ZM726 4V0H724V4H720V6H724V10H726V6H730V4H726Z" fill="#707178"></path>
    <path fill-rule="evenodd" clip-rule="evenodd" d="M396 34V30H394V34H390V36H394V40H396V36H400V34H396ZM396 4V0H394V4H390V6H394V10H396V6H400V4H396ZM366 34V30H364V34H360V36H364V40H366V36H370V34H366ZM366 4V0H364V4H360V6H364V10H366V6H370V4H366Z" fill="#707178"></path>
    <path fill-rule="evenodd" clip-rule="evenodd" d="M36 34V30H34V34H30V36H34V40H36V36H40V34H36ZM36 4V0H34V4H30V6H34V10H36V6H40V4H36ZM6 34V30H4V34H0V36H4V40H6V36H10V34H6ZM6 4V0H4V4H0V6H4V10H6V6H10V4H6Z" fill="#707178"></path>
    <path fill-rule="evenodd" clip-rule="evenodd" d="M1596 34V30H1594V34H1590V36H1594V40H1596V36H1600V34H1596ZM1596 4V0H1594V4H1590V6H1594V10H1596V6H1600V4H1596ZM1566 34V30H1564V34H1560V36H1564V40H1566V36H1570V34H1566ZM1566 4V0H1564V4H1560V6H1564V10H1566V6H1570V4H1566Z" fill="#707178"></path>
    <path fill-rule="evenodd" clip-rule="evenodd" d="M1236 34V30H1234V34H1230V36H1234V40H1236V36H1240V34H1236ZM1236 4V0H1234V4H1230V6H1234V10H1236V6H1240V4H1236ZM1206 34V30H1204V34H1200V36H1204V40H1206V36H1210V34H1206ZM1206 4V0H1204V4H1200V6H1204V10H1206V6H1210V4H1206Z" fill="#707178"></path>
    <path fill-rule="evenodd" clip-rule="evenodd" d="M876 34V30H874V34H870V36H874V40H876V36H880V34H876ZM876 4V0H874V4H870V6H874V10H876V6H880V4H876ZM846 34V30H844V34H840V36H844V40H846V36H850V34H846ZM846 4V0H844V4H840V6H844V10H846V6H850V4H846Z" fill="#707178"></path>
    <path fill-rule="evenodd" clip-rule="evenodd" d="M516 34V30H514V34H510V36H514V40H516V36H520V34H516ZM516 4V0H514V4H510V6H514V10H516V6H520V4H516ZM486 34V30H484V34H480V36H484V40H486V36H490V34H486ZM486 4V0H484V4H480V6H484V10H486V6H490V4H486Z" fill="#707178"></path>
    <path fill-rule="evenodd" clip-rule="evenodd" d="M156 34V30H154V34H150V36H154V40H156V36H160V34H156ZM156 4V0H154V4H150V6H154V10H156V6H160V4H156ZM126 34V30H124V34H120V36H124V40H126V36H130V34H126ZM126 4V0H124V4H120V6H124V10H126V6H130V4H126Z" fill="#707178"></path>
    <path fill-rule="evenodd" clip-rule="evenodd" d="M1716 34V30H1714V34H1710V36H1714V40H1716V36H1720V34H1716ZM1716 4V0H1714V4H1710V6H1714V10H1716V6H1720V4H1716ZM1686 34V30H1684V34H1680V36H1684V40H1686V36H1690V34H1686ZM1686 4V0H1684V4H1680V6H1684V10H1686V6H1690V4H1686Z" fill="#707178"></path>
    <path fill-rule="evenodd" clip-rule="evenodd" d="M1356 34V30H1354V34H1350V36H1354V40H1356V36H1360V34H1356ZM1356 4V0H1354V4H1350V6H1354V10H1356V6H1360V4H1356ZM1326 34V30H1324V34H1320V36H1324V40H1326V36H1330V34H1326ZM1326 4V0H1324V4H1320V6H1324V10H1326V6H1330V4H1326Z" fill="#707178"></path>
    <path fill-rule="evenodd" clip-rule="evenodd" d="M996 34V30H994V34H990V36H994V40H996V36H1000V34H996ZM996 4V0H994V4H990V6H994V10H996V6H1000V4H996ZM966 34V30H964V34H960V36H964V40H966V36H970V34H966ZM966 4V0H964V4H960V6H964V10H966V6H970V4H966Z" fill="#707178"></path>
    <path fill-rule="evenodd" clip-rule="evenodd" d="M636 34V30H634V34H630V36H634V40H636V36H640V34H636ZM636 4V0H634V4H630V6H634V10H636V6H640V4H636ZM606 34V30H604V34H600V36H604V40H606V36H610V34H606ZM606 4V0H604V4H600V6H604V10H606V6H610V4H606Z" fill="#707178"></path>
    <path fill-rule="evenodd" clip-rule="evenodd" d="M276 34V30H274V34H270V36H274V40H276V36H280V34H276ZM276 4V0H274V4H270V6H274V10H276V6H280V4H276ZM246 34V30H244V34H240V36H244V40H246V36H250V34H246ZM246 4V0H244V4H240V6H244V10H246V6H250V4H246Z" fill="#707178"></path>
    <path fill-rule="evenodd" clip-rule="evenodd" d="M1536 34V30H1534V34H1530V36H1534V40H1536V36H1540V34H1536ZM1536 4V0H1534V4H1530V6H1534V10H1536V6H1540V4H1536ZM1506 34V30H1504V34H1500V36H1504V40H1506V36H1510V34H1506ZM1506 4V0H1504V4H1500V6H1504V10H1506V6H1510V4H1506Z" fill="#707178"></path>
    <path fill-rule="evenodd" clip-rule="evenodd" d="M1176 34V30H1174V34H1170V36H1174V40H1176V36H1180V34H1176ZM1176 4V0H1174V4H1170V6H1174V10H1176V6H1180V4H1176ZM1146 34V30H1144V34H1140V36H1144V40H1146V36H1150V34H1146ZM1146 4V0H1144V4H1140V6H1144V10H1146V6H1150V4H1146Z" fill="#707178"></path>
    <path fill-rule="evenodd" clip-rule="evenodd" d="M816 34V30H814V34H810V36H814V40H816V36H820V34H816ZM816 4V0H814V4H810V6H814V10H816V6H820V4H816ZM786 34V30H784V34H780V36H784V40H786V36H790V34H786ZM786 4V0H784V4H780V6H784V10H786V6H790V4H786Z" fill="#707178"></path>
    <path fill-rule="evenodd" clip-rule="evenodd" d="M456 34V30H454V34H450V36H454V40H456V36H460V34H456ZM456 4V0H454V4H450V6H454V10H456V6H460V4H456ZM426 34V30H424V34H420V36H424V40H426V36H430V34H426ZM426 4V0H424V4H420V6H424V10H426V6H430V4H426Z" fill="#707178"></path>
    <path fill-rule="evenodd" clip-rule="evenodd" d="M96 34V30H94V34H90V36H94V40H96V36H100V34H96ZM96 4V0H94V4H90V6H94V10H96V6H100V4H96ZM66 34V30H64V34H60V36H64V40H66V36H70V34H66ZM66 4V0H64V4H60V6H64V10H66V6H70V4H66Z" fill="#707178"></path>
    <path fill-rule="evenodd" clip-rule="evenodd" d="M1656 34V30H1654V34H1650V36H1654V40H1656V36H1660V34H1656ZM1656 4V0H1654V4H1650V6H1654V10H1656V6H1660V4H1656ZM1626 34V30H1624V34H1620V36H1624V40H1626V36H1630V34H1626ZM1626 4V0H1624V4H1620V6H1624V10H1626V6H1630V4H1626Z" fill="#707178"></path>
    <path fill-rule="evenodd" clip-rule="evenodd" d="M1296 34V30H1294V34H1290V36H1294V40H1296V36H1300V34H1296ZM1296 4V0H1294V4H1290V6H1294V10H1296V6H1300V4H1296ZM1266 34V30H1264V34H1260V36H1264V40H1266V36H1270V34H1266ZM1266 4V0H1264V4H1260V6H1264V10H1266V6H1270V4H1266Z" fill="#707178"></path>
    <path fill-rule="evenodd" clip-rule="evenodd" d="M936 34V30H934V34H930V36H934V40H936V36H940V34H936ZM936 4V0H934V4H930V6H934V10H936V6H940V4H936ZM906 34V30H904V34H900V36H904V40H906V36H910V34H906ZM906 4V0H904V4H900V6H904V10H906V6H910V4H906Z" fill="#707178"></path>
    <path fill-rule="evenodd" clip-rule="evenodd" d="M576 34V30H574V34H570V36H574V40H576V36H580V34H576ZM576 4V0H574V4H570V6H574V10H576V6H580V4H576ZM546 34V30H544V34H540V36H544V40H546V36H550V34H546ZM546 4V0H544V4H540V6H544V10H546V6H550V4H546Z" fill="#707178"></path>
    <path fill-rule="evenodd" clip-rule="evenodd" d="M216 34V30H214V34H210V36H214V40H216V36H220V34H216ZM216 4V0H214V4H210V6H214V10H216V6H220V4H216ZM186 34V30H184V34H180V36H184V40H186V36H190V34H186ZM186 4V0H184V4H180V6H184V10H186V6H190V4H186Z" fill="#707178"></path>
    <path fill-rule="evenodd" clip-rule="evenodd" d="M1776 34V30H1774V34H1770V36H1774V40H1776V36H1780V34H1776ZM1776 4V0H1774V4H1770V6H1774V10H1776V6H1780V4H1776ZM1746 34V30H1744V34H1740V36H1744V40H1746V36H1750V34H1746ZM1746 4V0H1744V4H1740V6H1744V10H1746V6H1750V4H1746Z" fill="#707178"></path>
    <path fill-rule="evenodd" clip-rule="evenodd" d="M1416 34V30H1414V34H1410V36H1414V40H1416V36H1420V34H1416ZM1416 4V0H1414V4H1410V6H1414V10H1416V6H1420V4H1416ZM1386 34V30H1384V34H1380V36H1384V40H1386V36H1390V34H1386ZM1386 4V0H1384V4H1380V6H1384V10H1386V6H1390V4H1386Z" fill="#707178"></path>
    <path fill-rule="evenodd" clip-rule="evenodd" d="M1056 34V30H1054V34H1050V36H1054V40H1056V36H1060V34H1056ZM1056 4V0H1054V4H1050V6H1054V10H1056V6H1060V4H1056ZM1026 34V30H1024V34H1020V36H1024V40H1026V36H1030V34H1026ZM1026 4V0H1024V4H1020V6H1024V10H1026V6H1030V4H1026Z" fill="#707178"></path>
    <path fill-rule="evenodd" clip-rule="evenodd" d="M696 34V30H694V34H690V36H694V40H696V36H700V34H696ZM696 4V0H694V4H690V6H694V10H696V6H700V4H696ZM666 34V30H664V34H660V36H664V40H666V36H670V34H666ZM666 4V0H664V4H660V6H664V10H666V6H670V4H666Z" fill="#707178"></path>
    <path fill-rule="evenodd" clip-rule="evenodd" d="M336 34V30H334V34H330V36H334V40H336V36H340V34H336ZM336 4V0H334V4H330V6H334V10H336V6H340V4H336ZM306 34V30H304V34H300V36H304V40H306V36H310V34H306ZM306 4V0H304V4H300V6H304V10H306V6H310V4H306Z" fill="#707178"></path>
  </symbol>
</svg>