<svg width="0" height="0" class="hidden">
  <symbol fill="none" xmlns="http://www.w3.org/2000/svg" viewBox="0 0 1512 160" id="Vector">
    <path fill-rule="evenodd" clip-rule="evenodd" d="M1476 34V30H1474V34H1470V36H1474V40H1476V36H1480V34H1476ZM1476 4V0H1474V4H1470V6H1474V10H1476V6H1480V4H1476ZM1446 34V30H1444V34H1440V36H1444V40H1446V36H1450V34H1446ZM1446 4V0H1444V4H1440V6H1444V10H1446V6H1450V4H1446Z" fill="url(#paint0_linear_789_925)"></path>
    <path fill-rule="evenodd" clip-rule="evenodd" d="M1116 34V30H1114V34H1110V36H1114V40H1116V36H1120V34H1116ZM1116 4V0H1114V4H1110V6H1114V10H1116V6H1120V4H1116ZM1086 34V30H1084V34H1080V36H1084V40H1086V36H1090V34H1086ZM1086 4V0H1084V4H1080V6H1084V10H1086V6H1090V4H1086Z" fill="url(#paint1_linear_789_925)"></path>
    <path fill-rule="evenodd" clip-rule="evenodd" d="M756 34V30H754V34H750V36H754V40H756V36H760V34H756ZM756 4V0H754V4H750V6H754V10H756V6H760V4H756ZM726 34V30H724V34H720V36H724V40H726V36H730V34H726ZM726 4V0H724V4H720V6H724V10H726V6H730V4H726Z" fill="url(#paint2_linear_789_925)"></path>
    <path fill-rule="evenodd" clip-rule="evenodd" d="M396 34V30H394V34H390V36H394V40H396V36H400V34H396ZM396 4V0H394V4H390V6H394V10H396V6H400V4H396ZM366 34V30H364V34H360V36H364V40H366V36H370V34H366ZM366 4V0H364V4H360V6H364V10H366V6H370V4H366Z" fill="url(#paint3_linear_789_925)"></path>
    <path fill-rule="evenodd" clip-rule="evenodd" d="M36 34V30H34V34H30V36H34V40H36V36H40V34H36ZM36 4V0H34V4H30V6H34V10H36V6H40V4H36ZM6 34V30H4V34H0V36H4V40H6V36H10V34H6ZM6 4V0H4V4H0V6H4V10H6V6H10V4H6Z" fill="url(#paint4_linear_789_925)"></path>
    <path fill-rule="evenodd" clip-rule="evenodd" d="M1596 34V30H1594V34H1590V36H1594V40H1596V36H1600V34H1596ZM1596 4V0H1594V4H1590V6H1594V10H1596V6H1600V4H1596ZM1566 34V30H1564V34H1560V36H1564V40H1566V36H1570V34H1566ZM1566 4V0H1564V4H1560V6H1564V10H1566V6H1570V4H1566Z" fill="url(#paint5_linear_789_925)"></path>
    <path fill-rule="evenodd" clip-rule="evenodd" d="M1236 34V30H1234V34H1230V36H1234V40H1236V36H1240V34H1236ZM1236 4V0H1234V4H1230V6H1234V10H1236V6H1240V4H1236ZM1206 34V30H1204V34H1200V36H1204V40H1206V36H1210V34H1206ZM1206 4V0H1204V4H1200V6H1204V10H1206V6H1210V4H1206Z" fill="url(#paint6_linear_789_925)"></path>
    <path fill-rule="evenodd" clip-rule="evenodd" d="M876 34V30H874V34H870V36H874V40H876V36H880V34H876ZM876 4V0H874V4H870V6H874V10H876V6H880V4H876ZM846 34V30H844V34H840V36H844V40H846V36H850V34H846ZM846 4V0H844V4H840V6H844V10H846V6H850V4H846Z" fill="url(#paint7_linear_789_925)"></path>
    <path fill-rule="evenodd" clip-rule="evenodd" d="M516 34V30H514V34H510V36H514V40H516V36H520V34H516ZM516 4V0H514V4H510V6H514V10H516V6H520V4H516ZM486 34V30H484V34H480V36H484V40H486V36H490V34H486ZM486 4V0H484V4H480V6H484V10H486V6H490V4H486Z" fill="url(#paint8_linear_789_925)"></path>
    <path fill-rule="evenodd" clip-rule="evenodd" d="M156 34V30H154V34H150V36H154V40H156V36H160V34H156ZM156 4V0H154V4H150V6H154V10H156V6H160V4H156ZM126 34V30H124V34H120V36H124V40H126V36H130V34H126ZM126 4V0H124V4H120V6H124V10H126V6H130V4H126Z" fill="url(#paint9_linear_789_925)"></path>
    <path fill-rule="evenodd" clip-rule="evenodd" d="M1716 34V30H1714V34H1710V36H1714V40H1716V36H1720V34H1716ZM1716 4V0H1714V4H1710V6H1714V10H1716V6H1720V4H1716ZM1686 34V30H1684V34H1680V36H1684V40H1686V36H1690V34H1686ZM1686 4V0H1684V4H1680V6H1684V10H1686V6H1690V4H1686Z" fill="url(#paint10_linear_789_925)"></path>
    <path fill-rule="evenodd" clip-rule="evenodd" d="M1356 34V30H1354V34H1350V36H1354V40H1356V36H1360V34H1356ZM1356 4V0H1354V4H1350V6H1354V10H1356V6H1360V4H1356ZM1326 34V30H1324V34H1320V36H1324V40H1326V36H1330V34H1326ZM1326 4V0H1324V4H1320V6H1324V10H1326V6H1330V4H1326Z" fill="url(#paint11_linear_789_925)"></path>
    <path fill-rule="evenodd" clip-rule="evenodd" d="M996 34V30H994V34H990V36H994V40H996V36H1000V34H996ZM996 4V0H994V4H990V6H994V10H996V6H1000V4H996ZM966 34V30H964V34H960V36H964V40H966V36H970V34H966ZM966 4V0H964V4H960V6H964V10H966V6H970V4H966Z" fill="url(#paint12_linear_789_925)"></path>
    <path fill-rule="evenodd" clip-rule="evenodd" d="M636 34V30H634V34H630V36H634V40H636V36H640V34H636ZM636 4V0H634V4H630V6H634V10H636V6H640V4H636ZM606 34V30H604V34H600V36H604V40H606V36H610V34H606ZM606 4V0H604V4H600V6H604V10H606V6H610V4H606Z" fill="url(#paint13_linear_789_925)"></path>
    <path fill-rule="evenodd" clip-rule="evenodd" d="M276 34V30H274V34H270V36H274V40H276V36H280V34H276ZM276 4V0H274V4H270V6H274V10H276V6H280V4H276ZM246 34V30H244V34H240V36H244V40H246V36H250V34H246ZM246 4V0H244V4H240V6H244V10H246V6H250V4H246Z" fill="url(#paint14_linear_789_925)"></path>
    <path fill-rule="evenodd" clip-rule="evenodd" d="M1536 34V30H1534V34H1530V36H1534V40H1536V36H1540V34H1536ZM1536 4V0H1534V4H1530V6H1534V10H1536V6H1540V4H1536ZM1506 34V30H1504V34H1500V36H1504V40H1506V36H1510V34H1506ZM1506 4V0H1504V4H1500V6H1504V10H1506V6H1510V4H1506Z" fill="url(#paint15_linear_789_925)"></path>
    <path fill-rule="evenodd" clip-rule="evenodd" d="M1176 34V30H1174V34H1170V36H1174V40H1176V36H1180V34H1176ZM1176 4V0H1174V4H1170V6H1174V10H1176V6H1180V4H1176ZM1146 34V30H1144V34H1140V36H1144V40H1146V36H1150V34H1146ZM1146 4V0H1144V4H1140V6H1144V10H1146V6H1150V4H1146Z" fill="url(#paint16_linear_789_925)"></path>
    <path fill-rule="evenodd" clip-rule="evenodd" d="M816 34V30H814V34H810V36H814V40H816V36H820V34H816ZM816 4V0H814V4H810V6H814V10H816V6H820V4H816ZM786 34V30H784V34H780V36H784V40H786V36H790V34H786ZM786 4V0H784V4H780V6H784V10H786V6H790V4H786Z" fill="url(#paint17_linear_789_925)"></path>
    <path fill-rule="evenodd" clip-rule="evenodd" d="M456 34V30H454V34H450V36H454V40H456V36H460V34H456ZM456 4V0H454V4H450V6H454V10H456V6H460V4H456ZM426 34V30H424V34H420V36H424V40H426V36H430V34H426ZM426 4V0H424V4H420V6H424V10H426V6H430V4H426Z" fill="url(#paint18_linear_789_925)"></path>
    <path fill-rule="evenodd" clip-rule="evenodd" d="M96 34V30H94V34H90V36H94V40H96V36H100V34H96ZM96 4V0H94V4H90V6H94V10H96V6H100V4H96ZM66 34V30H64V34H60V36H64V40H66V36H70V34H66ZM66 4V0H64V4H60V6H64V10H66V6H70V4H66Z" fill="url(#paint19_linear_789_925)"></path>
    <path fill-rule="evenodd" clip-rule="evenodd" d="M1656 34V30H1654V34H1650V36H1654V40H1656V36H1660V34H1656ZM1656 4V0H1654V4H1650V6H1654V10H1656V6H1660V4H1656ZM1626 34V30H1624V34H1620V36H1624V40H1626V36H1630V34H1626ZM1626 4V0H1624V4H1620V6H1624V10H1626V6H1630V4H1626Z" fill="url(#paint20_linear_789_925)"></path>
    <path fill-rule="evenodd" clip-rule="evenodd" d="M1296 34V30H1294V34H1290V36H1294V40H1296V36H1300V34H1296ZM1296 4V0H1294V4H1290V6H1294V10H1296V6H1300V4H1296ZM1266 34V30H1264V34H1260V36H1264V40H1266V36H1270V34H1266ZM1266 4V0H1264V4H1260V6H1264V10H1266V6H1270V4H1266Z" fill="url(#paint21_linear_789_925)"></path>
    <path fill-rule="evenodd" clip-rule="evenodd" d="M936 34V30H934V34H930V36H934V40H936V36H940V34H936ZM936 4V0H934V4H930V6H934V10H936V6H940V4H936ZM906 34V30H904V34H900V36H904V40H906V36H910V34H906ZM906 4V0H904V4H900V6H904V10H906V6H910V4H906Z" fill="url(#paint22_linear_789_925)"></path>
    <path fill-rule="evenodd" clip-rule="evenodd" d="M576 34V30H574V34H570V36H574V40H576V36H580V34H576ZM576 4V0H574V4H570V6H574V10H576V6H580V4H576ZM546 34V30H544V34H540V36H544V40H546V36H550V34H546ZM546 4V0H544V4H540V6H544V10H546V6H550V4H546Z" fill="url(#paint23_linear_789_925)"></path>
    <path fill-rule="evenodd" clip-rule="evenodd" d="M216 34V30H214V34H210V36H214V40H216V36H220V34H216ZM216 4V0H214V4H210V6H214V10H216V6H220V4H216ZM186 34V30H184V34H180V36H184V40H186V36H190V34H186ZM186 4V0H184V4H180V6H184V10H186V6H190V4H186Z" fill="url(#paint24_linear_789_925)"></path>
    <path fill-rule="evenodd" clip-rule="evenodd" d="M1776 34V30H1774V34H1770V36H1774V40H1776V36H1780V34H1776ZM1776 4V0H1774V4H1770V6H1774V10H1776V6H1780V4H1776ZM1746 34V30H1744V34H1740V36H1744V40H1746V36H1750V34H1746ZM1746 4V0H1744V4H1740V6H1744V10H1746V6H1750V4H1746Z" fill="url(#paint25_linear_789_925)"></path>
    <path fill-rule="evenodd" clip-rule="evenodd" d="M1416 34V30H1414V34H1410V36H1414V40H1416V36H1420V34H1416ZM1416 4V0H1414V4H1410V6H1414V10H1416V6H1420V4H1416ZM1386 34V30H1384V34H1380V36H1384V40H1386V36H1390V34H1386ZM1386 4V0H1384V4H1380V6H1384V10H1386V6H1390V4H1386Z" fill="url(#paint26_linear_789_925)"></path>
    <path fill-rule="evenodd" clip-rule="evenodd" d="M1056 34V30H1054V34H1050V36H1054V40H1056V36H1060V34H1056ZM1056 4V0H1054V4H1050V6H1054V10H1056V6H1060V4H1056ZM1026 34V30H1024V34H1020V36H1024V40H1026V36H1030V34H1026ZM1026 4V0H1024V4H1020V6H1024V10H1026V6H1030V4H1026Z" fill="url(#paint27_linear_789_925)"></path>
    <path fill-rule="evenodd" clip-rule="evenodd" d="M696 34V30H694V34H690V36H694V40H696V36H700V34H696ZM696 4V0H694V4H690V6H694V10H696V6H700V4H696ZM666 34V30H664V34H660V36H664V40H666V36H670V34H666ZM666 4V0H664V4H660V6H664V10H666V6H670V4H666Z" fill="url(#paint28_linear_789_925)"></path>
    <path fill-rule="evenodd" clip-rule="evenodd" d="M336 34V30H334V34H330V36H334V40H336V36H340V34H336ZM336 4V0H334V4H330V6H334V10H336V6H340V4H336ZM306 34V30H304V34H300V36H304V40H306V36H310V34H306ZM306 4V0H304V4H300V6H304V10H306V6H310V4H306Z" fill="url(#paint29_linear_789_925)"></path>
    <path fill-rule="evenodd" clip-rule="evenodd" d="M1476 94V90H1474V94H1470V96H1474V100H1476V96H1480V94H1476ZM1476 64V60H1474V64H1470V66H1474V70H1476V66H1480V64H1476ZM1446 94V90H1444V94H1440V96H1444V100H1446V96H1450V94H1446ZM1446 64V60H1444V64H1440V66H1444V70H1446V66H1450V64H1446Z" fill="url(#paint30_linear_789_925)"></path>
    <path fill-rule="evenodd" clip-rule="evenodd" d="M1116 94V90H1114V94H1110V96H1114V100H1116V96H1120V94H1116ZM1116 64V60H1114V64H1110V66H1114V70H1116V66H1120V64H1116ZM1086 94V90H1084V94H1080V96H1084V100H1086V96H1090V94H1086ZM1086 64V60H1084V64H1080V66H1084V70H1086V66H1090V64H1086Z" fill="url(#paint31_linear_789_925)"></path>
    <path fill-rule="evenodd" clip-rule="evenodd" d="M756 94V90H754V94H750V96H754V100H756V96H760V94H756ZM756 64V60H754V64H750V66H754V70H756V66H760V64H756ZM726 94V90H724V94H720V96H724V100H726V96H730V94H726ZM726 64V60H724V64H720V66H724V70H726V66H730V64H726Z" fill="url(#paint32_linear_789_925)"></path>
    <path fill-rule="evenodd" clip-rule="evenodd" d="M396 94V90H394V94H390V96H394V100H396V96H400V94H396ZM396 64V60H394V64H390V66H394V70H396V66H400V64H396ZM366 94V90H364V94H360V96H364V100H366V96H370V94H366ZM366 64V60H364V64H360V66H364V70H366V66H370V64H366Z" fill="url(#paint33_linear_789_925)"></path>
    <path fill-rule="evenodd" clip-rule="evenodd" d="M36 94V90H34V94H30V96H34V100H36V96H40V94H36ZM36 64V60H34V64H30V66H34V70H36V66H40V64H36ZM6 94V90H4V94H0V96H4V100H6V96H10V94H6ZM6 64V60H4V64H0V66H4V70H6V66H10V64H6Z" fill="url(#paint34_linear_789_925)"></path>
    <path fill-rule="evenodd" clip-rule="evenodd" d="M1596 94V90H1594V94H1590V96H1594V100H1596V96H1600V94H1596ZM1596 64V60H1594V64H1590V66H1594V70H1596V66H1600V64H1596ZM1566 94V90H1564V94H1560V96H1564V100H1566V96H1570V94H1566ZM1566 64V60H1564V64H1560V66H1564V70H1566V66H1570V64H1566Z" fill="url(#paint35_linear_789_925)"></path>
    <path fill-rule="evenodd" clip-rule="evenodd" d="M1236 94V90H1234V94H1230V96H1234V100H1236V96H1240V94H1236ZM1236 64V60H1234V64H1230V66H1234V70H1236V66H1240V64H1236ZM1206 94V90H1204V94H1200V96H1204V100H1206V96H1210V94H1206ZM1206 64V60H1204V64H1200V66H1204V70H1206V66H1210V64H1206Z" fill="url(#paint36_linear_789_925)"></path>
    <path fill-rule="evenodd" clip-rule="evenodd" d="M876 94V90H874V94H870V96H874V100H876V96H880V94H876ZM876 64V60H874V64H870V66H874V70H876V66H880V64H876ZM846 94V90H844V94H840V96H844V100H846V96H850V94H846ZM846 64V60H844V64H840V66H844V70H846V66H850V64H846Z" fill="url(#paint37_linear_789_925)"></path>
    <path fill-rule="evenodd" clip-rule="evenodd" d="M516 94V90H514V94H510V96H514V100H516V96H520V94H516ZM516 64V60H514V64H510V66H514V70H516V66H520V64H516ZM486 94V90H484V94H480V96H484V100H486V96H490V94H486ZM486 64V60H484V64H480V66H484V70H486V66H490V64H486Z" fill="url(#paint38_linear_789_925)"></path>
    <path fill-rule="evenodd" clip-rule="evenodd" d="M156 94V90H154V94H150V96H154V100H156V96H160V94H156ZM156 64V60H154V64H150V66H154V70H156V66H160V64H156ZM126 94V90H124V94H120V96H124V100H126V96H130V94H126ZM126 64V60H124V64H120V66H124V70H126V66H130V64H126Z" fill="url(#paint39_linear_789_925)"></path>
    <path fill-rule="evenodd" clip-rule="evenodd" d="M1716 94V90H1714V94H1710V96H1714V100H1716V96H1720V94H1716ZM1716 64V60H1714V64H1710V66H1714V70H1716V66H1720V64H1716ZM1686 94V90H1684V94H1680V96H1684V100H1686V96H1690V94H1686ZM1686 64V60H1684V64H1680V66H1684V70H1686V66H1690V64H1686Z" fill="url(#paint40_linear_789_925)"></path>
    <path fill-rule="evenodd" clip-rule="evenodd" d="M1356 94V90H1354V94H1350V96H1354V100H1356V96H1360V94H1356ZM1356 64V60H1354V64H1350V66H1354V70H1356V66H1360V64H1356ZM1326 94V90H1324V94H1320V96H1324V100H1326V96H1330V94H1326ZM1326 64V60H1324V64H1320V66H1324V70H1326V66H1330V64H1326Z" fill="url(#paint41_linear_789_925)"></path>
    <path fill-rule="evenodd" clip-rule="evenodd" d="M996 94V90H994V94H990V96H994V100H996V96H1000V94H996ZM996 64V60H994V64H990V66H994V70H996V66H1000V64H996ZM966 94V90H964V94H960V96H964V100H966V96H970V94H966ZM966 64V60H964V64H960V66H964V70H966V66H970V64H966Z" fill="url(#paint42_linear_789_925)"></path>
    <path fill-rule="evenodd" clip-rule="evenodd" d="M636 94V90H634V94H630V96H634V100H636V96H640V94H636ZM636 64V60H634V64H630V66H634V70H636V66H640V64H636ZM606 94V90H604V94H600V96H604V100H606V96H610V94H606ZM606 64V60H604V64H600V66H604V70H606V66H610V64H606Z" fill="url(#paint43_linear_789_925)"></path>
    <path fill-rule="evenodd" clip-rule="evenodd" d="M276 94V90H274V94H270V96H274V100H276V96H280V94H276ZM276 64V60H274V64H270V66H274V70H276V66H280V64H276ZM246 94V90H244V94H240V96H244V100H246V96H250V94H246ZM246 64V60H244V64H240V66H244V70H246V66H250V64H246Z" fill="url(#paint44_linear_789_925)"></path>
    <path fill-rule="evenodd" clip-rule="evenodd" d="M1536 94V90H1534V94H1530V96H1534V100H1536V96H1540V94H1536ZM1536 64V60H1534V64H1530V66H1534V70H1536V66H1540V64H1536ZM1506 94V90H1504V94H1500V96H1504V100H1506V96H1510V94H1506ZM1506 64V60H1504V64H1500V66H1504V70H1506V66H1510V64H1506Z" fill="url(#paint45_linear_789_925)"></path>
    <path fill-rule="evenodd" clip-rule="evenodd" d="M1176 94V90H1174V94H1170V96H1174V100H1176V96H1180V94H1176ZM1176 64V60H1174V64H1170V66H1174V70H1176V66H1180V64H1176ZM1146 94V90H1144V94H1140V96H1144V100H1146V96H1150V94H1146ZM1146 64V60H1144V64H1140V66H1144V70H1146V66H1150V64H1146Z" fill="url(#paint46_linear_789_925)"></path>
    <path fill-rule="evenodd" clip-rule="evenodd" d="M816 94V90H814V94H810V96H814V100H816V96H820V94H816ZM816 64V60H814V64H810V66H814V70H816V66H820V64H816ZM786 94V90H784V94H780V96H784V100H786V96H790V94H786ZM786 64V60H784V64H780V66H784V70H786V66H790V64H786Z" fill="url(#paint47_linear_789_925)"></path>
    <path fill-rule="evenodd" clip-rule="evenodd" d="M456 94V90H454V94H450V96H454V100H456V96H460V94H456ZM456 64V60H454V64H450V66H454V70H456V66H460V64H456ZM426 94V90H424V94H420V96H424V100H426V96H430V94H426ZM426 64V60H424V64H420V66H424V70H426V66H430V64H426Z" fill="url(#paint48_linear_789_925)"></path>
    <path fill-rule="evenodd" clip-rule="evenodd" d="M96 94V90H94V94H90V96H94V100H96V96H100V94H96ZM96 64V60H94V64H90V66H94V70H96V66H100V64H96ZM66 94V90H64V94H60V96H64V100H66V96H70V94H66ZM66 64V60H64V64H60V66H64V70H66V66H70V64H66Z" fill="url(#paint49_linear_789_925)"></path>
    <path fill-rule="evenodd" clip-rule="evenodd" d="M1656 94V90H1654V94H1650V96H1654V100H1656V96H1660V94H1656ZM1656 64V60H1654V64H1650V66H1654V70H1656V66H1660V64H1656ZM1626 94V90H1624V94H1620V96H1624V100H1626V96H1630V94H1626ZM1626 64V60H1624V64H1620V66H1624V70H1626V66H1630V64H1626Z" fill="url(#paint50_linear_789_925)"></path>
    <path fill-rule="evenodd" clip-rule="evenodd" d="M1296 94V90H1294V94H1290V96H1294V100H1296V96H1300V94H1296ZM1296 64V60H1294V64H1290V66H1294V70H1296V66H1300V64H1296ZM1266 94V90H1264V94H1260V96H1264V100H1266V96H1270V94H1266ZM1266 64V60H1264V64H1260V66H1264V70H1266V66H1270V64H1266Z" fill="url(#paint51_linear_789_925)"></path>
    <path fill-rule="evenodd" clip-rule="evenodd" d="M936 94V90H934V94H930V96H934V100H936V96H940V94H936ZM936 64V60H934V64H930V66H934V70H936V66H940V64H936ZM906 94V90H904V94H900V96H904V100H906V96H910V94H906ZM906 64V60H904V64H900V66H904V70H906V66H910V64H906Z" fill="url(#paint52_linear_789_925)"></path>
    <path fill-rule="evenodd" clip-rule="evenodd" d="M576 94V90H574V94H570V96H574V100H576V96H580V94H576ZM576 64V60H574V64H570V66H574V70H576V66H580V64H576ZM546 94V90H544V94H540V96H544V100H546V96H550V94H546ZM546 64V60H544V64H540V66H544V70H546V66H550V64H546Z" fill="url(#paint53_linear_789_925)"></path>
    <path fill-rule="evenodd" clip-rule="evenodd" d="M216 94V90H214V94H210V96H214V100H216V96H220V94H216ZM216 64V60H214V64H210V66H214V70H216V66H220V64H216ZM186 94V90H184V94H180V96H184V100H186V96H190V94H186ZM186 64V60H184V64H180V66H184V70H186V66H190V64H186Z" fill="url(#paint54_linear_789_925)"></path>
    <path fill-rule="evenodd" clip-rule="evenodd" d="M1776 94V90H1774V94H1770V96H1774V100H1776V96H1780V94H1776ZM1776 64V60H1774V64H1770V66H1774V70H1776V66H1780V64H1776ZM1746 94V90H1744V94H1740V96H1744V100H1746V96H1750V94H1746ZM1746 64V60H1744V64H1740V66H1744V70H1746V66H1750V64H1746Z" fill="url(#paint55_linear_789_925)"></path>
    <path fill-rule="evenodd" clip-rule="evenodd" d="M1416 94V90H1414V94H1410V96H1414V100H1416V96H1420V94H1416ZM1416 64V60H1414V64H1410V66H1414V70H1416V66H1420V64H1416ZM1386 94V90H1384V94H1380V96H1384V100H1386V96H1390V94H1386ZM1386 64V60H1384V64H1380V66H1384V70H1386V66H1390V64H1386Z" fill="url(#paint56_linear_789_925)"></path>
    <path fill-rule="evenodd" clip-rule="evenodd" d="M1056 94V90H1054V94H1050V96H1054V100H1056V96H1060V94H1056ZM1056 64V60H1054V64H1050V66H1054V70H1056V66H1060V64H1056ZM1026 94V90H1024V94H1020V96H1024V100H1026V96H1030V94H1026ZM1026 64V60H1024V64H1020V66H1024V70H1026V66H1030V64H1026Z" fill="url(#paint57_linear_789_925)"></path>
    <path fill-rule="evenodd" clip-rule="evenodd" d="M696 94V90H694V94H690V96H694V100H696V96H700V94H696ZM696 64V60H694V64H690V66H694V70H696V66H700V64H696ZM666 94V90H664V94H660V96H664V100H666V96H670V94H666ZM666 64V60H664V64H660V66H664V70H666V66H670V64H666Z" fill="url(#paint58_linear_789_925)"></path>
    <path fill-rule="evenodd" clip-rule="evenodd" d="M336 94V90H334V94H330V96H334V100H336V96H340V94H336ZM336 64V60H334V64H330V66H334V70H336V66H340V64H336ZM306 94V90H304V94H300V96H304V100H306V96H310V94H306ZM306 64V60H304V64H300V66H304V70H306V66H310V64H306Z" fill="url(#paint59_linear_789_925)"></path>
    <path fill-rule="evenodd" clip-rule="evenodd" d="M1476 154V150H1474V154H1470V156H1474V160H1476V156H1480V154H1476ZM1476 124V120H1474V124H1470V126H1474V130H1476V126H1480V124H1476ZM1446 154V150H1444V154H1440V156H1444V160H1446V156H1450V154H1446ZM1446 124V120H1444V124H1440V126H1444V130H1446V126H1450V124H1446Z" fill="url(#paint60_linear_789_925)"></path>
    <path fill-rule="evenodd" clip-rule="evenodd" d="M1116 154V150H1114V154H1110V156H1114V160H1116V156H1120V154H1116ZM1116 124V120H1114V124H1110V126H1114V130H1116V126H1120V124H1116ZM1086 154V150H1084V154H1080V156H1084V160H1086V156H1090V154H1086ZM1086 124V120H1084V124H1080V126H1084V130H1086V126H1090V124H1086Z" fill="url(#paint61_linear_789_925)"></path>
    <path fill-rule="evenodd" clip-rule="evenodd" d="M756 154V150H754V154H750V156H754V160H756V156H760V154H756ZM756 124V120H754V124H750V126H754V130H756V126H760V124H756ZM726 154V150H724V154H720V156H724V160H726V156H730V154H726ZM726 124V120H724V124H720V126H724V130H726V126H730V124H726Z" fill="url(#paint62_linear_789_925)"></path>
    <path fill-rule="evenodd" clip-rule="evenodd" d="M396 154V150H394V154H390V156H394V160H396V156H400V154H396ZM396 124V120H394V124H390V126H394V130H396V126H400V124H396ZM366 154V150H364V154H360V156H364V160H366V156H370V154H366ZM366 124V120H364V124H360V126H364V130H366V126H370V124H366Z" fill="url(#paint63_linear_789_925)"></path>
    <path fill-rule="evenodd" clip-rule="evenodd" d="M36 154V150H34V154H30V156H34V160H36V156H40V154H36ZM36 124V120H34V124H30V126H34V130H36V126H40V124H36ZM6 154V150H4V154H0V156H4V160H6V156H10V154H6ZM6 124V120H4V124H0V126H4V130H6V126H10V124H6Z" fill="url(#paint64_linear_789_925)"></path>
    <path fill-rule="evenodd" clip-rule="evenodd" d="M1596 154V150H1594V154H1590V156H1594V160H1596V156H1600V154H1596ZM1596 124V120H1594V124H1590V126H1594V130H1596V126H1600V124H1596ZM1566 154V150H1564V154H1560V156H1564V160H1566V156H1570V154H1566ZM1566 124V120H1564V124H1560V126H1564V130H1566V126H1570V124H1566Z" fill="url(#paint65_linear_789_925)"></path>
    <path fill-rule="evenodd" clip-rule="evenodd" d="M1236 154V150H1234V154H1230V156H1234V160H1236V156H1240V154H1236ZM1236 124V120H1234V124H1230V126H1234V130H1236V126H1240V124H1236ZM1206 154V150H1204V154H1200V156H1204V160H1206V156H1210V154H1206ZM1206 124V120H1204V124H1200V126H1204V130H1206V126H1210V124H1206Z" fill="url(#paint66_linear_789_925)"></path>
    <path fill-rule="evenodd" clip-rule="evenodd" d="M876 154V150H874V154H870V156H874V160H876V156H880V154H876ZM876 124V120H874V124H870V126H874V130H876V126H880V124H876ZM846 154V150H844V154H840V156H844V160H846V156H850V154H846ZM846 124V120H844V124H840V126H844V130H846V126H850V124H846Z" fill="url(#paint67_linear_789_925)"></path>
    <path fill-rule="evenodd" clip-rule="evenodd" d="M516 154V150H514V154H510V156H514V160H516V156H520V154H516ZM516 124V120H514V124H510V126H514V130H516V126H520V124H516ZM486 154V150H484V154H480V156H484V160H486V156H490V154H486ZM486 124V120H484V124H480V126H484V130H486V126H490V124H486Z" fill="url(#paint68_linear_789_925)"></path>
    <path fill-rule="evenodd" clip-rule="evenodd" d="M156 154V150H154V154H150V156H154V160H156V156H160V154H156ZM156 124V120H154V124H150V126H154V130H156V126H160V124H156ZM126 154V150H124V154H120V156H124V160H126V156H130V154H126ZM126 124V120H124V124H120V126H124V130H126V126H130V124H126Z" fill="url(#paint69_linear_789_925)"></path>
    <path fill-rule="evenodd" clip-rule="evenodd" d="M1716 154V150H1714V154H1710V156H1714V160H1716V156H1720V154H1716ZM1716 124V120H1714V124H1710V126H1714V130H1716V126H1720V124H1716ZM1686 154V150H1684V154H1680V156H1684V160H1686V156H1690V154H1686ZM1686 124V120H1684V124H1680V126H1684V130H1686V126H1690V124H1686Z" fill="url(#paint70_linear_789_925)"></path>
    <path fill-rule="evenodd" clip-rule="evenodd" d="M1356 154V150H1354V154H1350V156H1354V160H1356V156H1360V154H1356ZM1356 124V120H1354V124H1350V126H1354V130H1356V126H1360V124H1356ZM1326 154V150H1324V154H1320V156H1324V160H1326V156H1330V154H1326ZM1326 124V120H1324V124H1320V126H1324V130H1326V126H1330V124H1326Z" fill="url(#paint71_linear_789_925)"></path>
    <path fill-rule="evenodd" clip-rule="evenodd" d="M996 154V150H994V154H990V156H994V160H996V156H1000V154H996ZM996 124V120H994V124H990V126H994V130H996V126H1000V124H996ZM966 154V150H964V154H960V156H964V160H966V156H970V154H966ZM966 124V120H964V124H960V126H964V130H966V126H970V124H966Z" fill="url(#paint72_linear_789_925)"></path>
    <path fill-rule="evenodd" clip-rule="evenodd" d="M636 154V150H634V154H630V156H634V160H636V156H640V154H636ZM636 124V120H634V124H630V126H634V130H636V126H640V124H636ZM606 154V150H604V154H600V156H604V160H606V156H610V154H606ZM606 124V120H604V124H600V126H604V130H606V126H610V124H606Z" fill="url(#paint73_linear_789_925)"></path>
    <path fill-rule="evenodd" clip-rule="evenodd" d="M276 154V150H274V154H270V156H274V160H276V156H280V154H276ZM276 124V120H274V124H270V126H274V130H276V126H280V124H276ZM246 154V150H244V154H240V156H244V160H246V156H250V154H246ZM246 124V120H244V124H240V126H244V130H246V126H250V124H246Z" fill="url(#paint74_linear_789_925)"></path>
    <path fill-rule="evenodd" clip-rule="evenodd" d="M1536 154V150H1534V154H1530V156H1534V160H1536V156H1540V154H1536ZM1536 124V120H1534V124H1530V126H1534V130H1536V126H1540V124H1536ZM1506 154V150H1504V154H1500V156H1504V160H1506V156H1510V154H1506ZM1506 124V120H1504V124H1500V126H1504V130H1506V126H1510V124H1506Z" fill="url(#paint75_linear_789_925)"></path>
    <path fill-rule="evenodd" clip-rule="evenodd" d="M1176 154V150H1174V154H1170V156H1174V160H1176V156H1180V154H1176ZM1176 124V120H1174V124H1170V126H1174V130H1176V126H1180V124H1176ZM1146 154V150H1144V154H1140V156H1144V160H1146V156H1150V154H1146ZM1146 124V120H1144V124H1140V126H1144V130H1146V126H1150V124H1146Z" fill="url(#paint76_linear_789_925)"></path>
    <path fill-rule="evenodd" clip-rule="evenodd" d="M816 154V150H814V154H810V156H814V160H816V156H820V154H816ZM816 124V120H814V124H810V126H814V130H816V126H820V124H816ZM786 154V150H784V154H780V156H784V160H786V156H790V154H786ZM786 124V120H784V124H780V126H784V130H786V126H790V124H786Z" fill="url(#paint77_linear_789_925)"></path>
    <path fill-rule="evenodd" clip-rule="evenodd" d="M456 154V150H454V154H450V156H454V160H456V156H460V154H456ZM456 124V120H454V124H450V126H454V130H456V126H460V124H456ZM426 154V150H424V154H420V156H424V160H426V156H430V154H426ZM426 124V120H424V124H420V126H424V130H426V126H430V124H426Z" fill="url(#paint78_linear_789_925)"></path>
    <path fill-rule="evenodd" clip-rule="evenodd" d="M96 154V150H94V154H90V156H94V160H96V156H100V154H96ZM96 124V120H94V124H90V126H94V130H96V126H100V124H96ZM66 154V150H64V154H60V156H64V160H66V156H70V154H66ZM66 124V120H64V124H60V126H64V130H66V126H70V124H66Z" fill="url(#paint79_linear_789_925)"></path>
    <path fill-rule="evenodd" clip-rule="evenodd" d="M1656 154V150H1654V154H1650V156H1654V160H1656V156H1660V154H1656ZM1656 124V120H1654V124H1650V126H1654V130H1656V126H1660V124H1656ZM1626 154V150H1624V154H1620V156H1624V160H1626V156H1630V154H1626ZM1626 124V120H1624V124H1620V126H1624V130H1626V126H1630V124H1626Z" fill="url(#paint80_linear_789_925)"></path>
    <path fill-rule="evenodd" clip-rule="evenodd" d="M1296 154V150H1294V154H1290V156H1294V160H1296V156H1300V154H1296ZM1296 124V120H1294V124H1290V126H1294V130H1296V126H1300V124H1296ZM1266 154V150H1264V154H1260V156H1264V160H1266V156H1270V154H1266ZM1266 124V120H1264V124H1260V126H1264V130H1266V126H1270V124H1266Z" fill="url(#paint81_linear_789_925)"></path>
    <path fill-rule="evenodd" clip-rule="evenodd" d="M936 154V150H934V154H930V156H934V160H936V156H940V154H936ZM936 124V120H934V124H930V126H934V130H936V126H940V124H936ZM906 154V150H904V154H900V156H904V160H906V156H910V154H906ZM906 124V120H904V124H900V126H904V130H906V126H910V124H906Z" fill="url(#paint82_linear_789_925)"></path>
    <path fill-rule="evenodd" clip-rule="evenodd" d="M576 154V150H574V154H570V156H574V160H576V156H580V154H576ZM576 124V120H574V124H570V126H574V130H576V126H580V124H576ZM546 154V150H544V154H540V156H544V160H546V156H550V154H546ZM546 124V120H544V124H540V126H544V130H546V126H550V124H546Z" fill="url(#paint83_linear_789_925)"></path>
    <path fill-rule="evenodd" clip-rule="evenodd" d="M216 154V150H214V154H210V156H214V160H216V156H220V154H216ZM216 124V120H214V124H210V126H214V130H216V126H220V124H216ZM186 154V150H184V154H180V156H184V160H186V156H190V154H186ZM186 124V120H184V124H180V126H184V130H186V126H190V124H186Z" fill="url(#paint84_linear_789_925)"></path>
    <path fill-rule="evenodd" clip-rule="evenodd" d="M1776 154V150H1774V154H1770V156H1774V160H1776V156H1780V154H1776ZM1776 124V120H1774V124H1770V126H1774V130H1776V126H1780V124H1776ZM1746 154V150H1744V154H1740V156H1744V160H1746V156H1750V154H1746ZM1746 124V120H1744V124H1740V126H1744V130H1746V126H1750V124H1746Z" fill="url(#paint85_linear_789_925)"></path>
    <path fill-rule="evenodd" clip-rule="evenodd" d="M1416 154V150H1414V154H1410V156H1414V160H1416V156H1420V154H1416ZM1416 124V120H1414V124H1410V126H1414V130H1416V126H1420V124H1416ZM1386 154V150H1384V154H1380V156H1384V160H1386V156H1390V154H1386ZM1386 124V120H1384V124H1380V126H1384V130H1386V126H1390V124H1386Z" fill="url(#paint86_linear_789_925)"></path>
    <path fill-rule="evenodd" clip-rule="evenodd" d="M1056 154V150H1054V154H1050V156H1054V160H1056V156H1060V154H1056ZM1056 124V120H1054V124H1050V126H1054V130H1056V126H1060V124H1056ZM1026 154V150H1024V154H1020V156H1024V160H1026V156H1030V154H1026ZM1026 124V120H1024V124H1020V126H1024V130H1026V126H1030V124H1026Z" fill="url(#paint87_linear_789_925)"></path>
    <path fill-rule="evenodd" clip-rule="evenodd" d="M696 154V150H694V154H690V156H694V160H696V156H700V154H696ZM696 124V120H694V124H690V126H694V130H696V126H700V124H696ZM666 154V150H664V154H660V156H664V160H666V156H670V154H666ZM666 124V120H664V124H660V126H664V130H666V126H670V124H666Z" fill="url(#paint88_linear_789_925)"></path>
    <path fill-rule="evenodd" clip-rule="evenodd" d="M336 154V150H334V154H330V156H334V160H336V156H340V154H336ZM336 124V120H334V124H330V126H334V130H336V126H340V124H336ZM306 154V150H304V154H300V156H304V160H306V156H310V154H306ZM306 124V120H304V124H300V126H304V130H306V126H310V124H306Z" fill="url(#paint89_linear_789_925)"></path>
    <defs>
      <linearGradient id="paint0_linear_789_925" x1="890" y1="-46.5" x2="890" y2="252" gradientUnits="userSpaceOnUse">
        <stop stop-color="#2F313A" stop-opacity="0"></stop>
        <stop offset="1" stop-color="#2F313A"></stop>
      </linearGradient>
      <linearGradient id="paint1_linear_789_925" x1="890" y1="-46.5" x2="890" y2="252" gradientUnits="userSpaceOnUse">
        <stop stop-color="#2F313A" stop-opacity="0"></stop>
        <stop offset="1" stop-color="#2F313A"></stop>
      </linearGradient>
      <linearGradient id="paint2_linear_789_925" x1="890" y1="-46.5" x2="890" y2="252" gradientUnits="userSpaceOnUse">
        <stop stop-color="#2F313A" stop-opacity="0"></stop>
        <stop offset="1" stop-color="#2F313A"></stop>
      </linearGradient>
      <linearGradient id="paint3_linear_789_925" x1="890" y1="-46.5" x2="890" y2="252" gradientUnits="userSpaceOnUse">
        <stop stop-color="#2F313A" stop-opacity="0"></stop>
        <stop offset="1" stop-color="#2F313A"></stop>
      </linearGradient>
      <linearGradient id="paint4_linear_789_925" x1="890" y1="-46.5" x2="890" y2="252" gradientUnits="userSpaceOnUse">
        <stop stop-color="#2F313A" stop-opacity="0"></stop>
        <stop offset="1" stop-color="#2F313A"></stop>
      </linearGradient>
      <linearGradient id="paint5_linear_789_925" x1="890" y1="-46.5" x2="890" y2="252" gradientUnits="userSpaceOnUse">
        <stop stop-color="#2F313A" stop-opacity="0"></stop>
        <stop offset="1" stop-color="#2F313A"></stop>
      </linearGradient>
      <linearGradient id="paint6_linear_789_925" x1="890" y1="-46.5" x2="890" y2="252" gradientUnits="userSpaceOnUse">
        <stop stop-color="#2F313A" stop-opacity="0"></stop>
        <stop offset="1" stop-color="#2F313A"></stop>
      </linearGradient>
      <linearGradient id="paint7_linear_789_925" x1="890" y1="-46.5" x2="890" y2="252" gradientUnits="userSpaceOnUse">
        <stop stop-color="#2F313A" stop-opacity="0"></stop>
        <stop offset="1" stop-color="#2F313A"></stop>
      </linearGradient>
      <linearGradient id="paint8_linear_789_925" x1="890" y1="-46.5" x2="890" y2="252" gradientUnits="userSpaceOnUse">
        <stop stop-color="#2F313A" stop-opacity="0"></stop>
        <stop offset="1" stop-color="#2F313A"></stop>
      </linearGradient>
      <linearGradient id="paint9_linear_789_925" x1="890" y1="-46.5" x2="890" y2="252" gradientUnits="userSpaceOnUse">
        <stop stop-color="#2F313A" stop-opacity="0"></stop>
        <stop offset="1" stop-color="#2F313A"></stop>
      </linearGradient>
      <linearGradient id="paint10_linear_789_925" x1="890" y1="-46.5" x2="890" y2="252" gradientUnits="userSpaceOnUse">
        <stop stop-color="#2F313A" stop-opacity="0"></stop>
        <stop offset="1" stop-color="#2F313A"></stop>
      </linearGradient>
      <linearGradient id="paint11_linear_789_925" x1="890" y1="-46.5" x2="890" y2="252" gradientUnits="userSpaceOnUse">
        <stop stop-color="#2F313A" stop-opacity="0"></stop>
        <stop offset="1" stop-color="#2F313A"></stop>
      </linearGradient>
      <linearGradient id="paint12_linear_789_925" x1="890" y1="-46.5" x2="890" y2="252" gradientUnits="userSpaceOnUse">
        <stop stop-color="#2F313A" stop-opacity="0"></stop>
        <stop offset="1" stop-color="#2F313A"></stop>
      </linearGradient>
      <linearGradient id="paint13_linear_789_925" x1="890" y1="-46.5" x2="890" y2="252" gradientUnits="userSpaceOnUse">
        <stop stop-color="#2F313A" stop-opacity="0"></stop>
        <stop offset="1" stop-color="#2F313A"></stop>
      </linearGradient>
      <linearGradient id="paint14_linear_789_925" x1="890" y1="-46.5" x2="890" y2="252" gradientUnits="userSpaceOnUse">
        <stop stop-color="#2F313A" stop-opacity="0"></stop>
        <stop offset="1" stop-color="#2F313A"></stop>
      </linearGradient>
      <linearGradient id="paint15_linear_789_925" x1="890" y1="-46.5" x2="890" y2="252" gradientUnits="userSpaceOnUse">
        <stop stop-color="#2F313A" stop-opacity="0"></stop>
        <stop offset="1" stop-color="#2F313A"></stop>
      </linearGradient>
      <linearGradient id="paint16_linear_789_925" x1="890" y1="-46.5" x2="890" y2="252" gradientUnits="userSpaceOnUse">
        <stop stop-color="#2F313A" stop-opacity="0"></stop>
        <stop offset="1" stop-color="#2F313A"></stop>
      </linearGradient>
      <linearGradient id="paint17_linear_789_925" x1="890" y1="-46.5" x2="890" y2="252" gradientUnits="userSpaceOnUse">
        <stop stop-color="#2F313A" stop-opacity="0"></stop>
        <stop offset="1" stop-color="#2F313A"></stop>
      </linearGradient>
      <linearGradient id="paint18_linear_789_925" x1="890" y1="-46.5" x2="890" y2="252" gradientUnits="userSpaceOnUse">
        <stop stop-color="#2F313A" stop-opacity="0"></stop>
        <stop offset="1" stop-color="#2F313A"></stop>
      </linearGradient>
      <linearGradient id="paint19_linear_789_925" x1="890" y1="-46.5" x2="890" y2="252" gradientUnits="userSpaceOnUse">
        <stop stop-color="#2F313A" stop-opacity="0"></stop>
        <stop offset="1" stop-color="#2F313A"></stop>
      </linearGradient>
      <linearGradient id="paint20_linear_789_925" x1="890" y1="-46.5" x2="890" y2="252" gradientUnits="userSpaceOnUse">
        <stop stop-color="#2F313A" stop-opacity="0"></stop>
        <stop offset="1" stop-color="#2F313A"></stop>
      </linearGradient>
      <linearGradient id="paint21_linear_789_925" x1="890" y1="-46.5" x2="890" y2="252" gradientUnits="userSpaceOnUse">
        <stop stop-color="#2F313A" stop-opacity="0"></stop>
        <stop offset="1" stop-color="#2F313A"></stop>
      </linearGradient>
      <linearGradient id="paint22_linear_789_925" x1="890" y1="-46.5" x2="890" y2="252" gradientUnits="userSpaceOnUse">
        <stop stop-color="#2F313A" stop-opacity="0"></stop>
        <stop offset="1" stop-color="#2F313A"></stop>
      </linearGradient>
      <linearGradient id="paint23_linear_789_925" x1="890" y1="-46.5" x2="890" y2="252" gradientUnits="userSpaceOnUse">
        <stop stop-color="#2F313A" stop-opacity="0"></stop>
        <stop offset="1" stop-color="#2F313A"></stop>
      </linearGradient>
      <linearGradient id="paint24_linear_789_925" x1="890" y1="-46.5" x2="890" y2="252" gradientUnits="userSpaceOnUse">
        <stop stop-color="#2F313A" stop-opacity="0"></stop>
        <stop offset="1" stop-color="#2F313A"></stop>
      </linearGradient>
      <linearGradient id="paint25_linear_789_925" x1="890" y1="-46.5" x2="890" y2="252" gradientUnits="userSpaceOnUse">
        <stop stop-color="#2F313A" stop-opacity="0"></stop>
        <stop offset="1" stop-color="#2F313A"></stop>
      </linearGradient>
      <linearGradient id="paint26_linear_789_925" x1="890" y1="-46.5" x2="890" y2="252" gradientUnits="userSpaceOnUse">
        <stop stop-color="#2F313A" stop-opacity="0"></stop>
        <stop offset="1" stop-color="#2F313A"></stop>
      </linearGradient>
      <linearGradient id="paint27_linear_789_925" x1="890" y1="-46.5" x2="890" y2="252" gradientUnits="userSpaceOnUse">
        <stop stop-color="#2F313A" stop-opacity="0"></stop>
        <stop offset="1" stop-color="#2F313A"></stop>
      </linearGradient>
      <linearGradient id="paint28_linear_789_925" x1="890" y1="-46.5" x2="890" y2="252" gradientUnits="userSpaceOnUse">
        <stop stop-color="#2F313A" stop-opacity="0"></stop>
        <stop offset="1" stop-color="#2F313A"></stop>
      </linearGradient>
      <linearGradient id="paint29_linear_789_925" x1="890" y1="-46.5" x2="890" y2="252" gradientUnits="userSpaceOnUse">
        <stop stop-color="#2F313A" stop-opacity="0"></stop>
        <stop offset="1" stop-color="#2F313A"></stop>
      </linearGradient>
      <linearGradient id="paint30_linear_789_925" x1="890" y1="-46.5" x2="890" y2="252" gradientUnits="userSpaceOnUse">
        <stop stop-color="#2F313A" stop-opacity="0"></stop>
        <stop offset="1" stop-color="#2F313A"></stop>
      </linearGradient>
      <linearGradient id="paint31_linear_789_925" x1="890" y1="-46.5" x2="890" y2="252" gradientUnits="userSpaceOnUse">
        <stop stop-color="#2F313A" stop-opacity="0"></stop>
        <stop offset="1" stop-color="#2F313A"></stop>
      </linearGradient>
      <linearGradient id="paint32_linear_789_925" x1="890" y1="-46.5" x2="890" y2="252" gradientUnits="userSpaceOnUse">
        <stop stop-color="#2F313A" stop-opacity="0"></stop>
        <stop offset="1" stop-color="#2F313A"></stop>
      </linearGradient>
      <linearGradient id="paint33_linear_789_925" x1="890" y1="-46.5" x2="890" y2="252" gradientUnits="userSpaceOnUse">
        <stop stop-color="#2F313A" stop-opacity="0"></stop>
        <stop offset="1" stop-color="#2F313A"></stop>
      </linearGradient>
      <linearGradient id="paint34_linear_789_925" x1="890" y1="-46.5" x2="890" y2="252" gradientUnits="userSpaceOnUse">
        <stop stop-color="#2F313A" stop-opacity="0"></stop>
        <stop offset="1" stop-color="#2F313A"></stop>
      </linearGradient>
      <linearGradient id="paint35_linear_789_925" x1="890" y1="-46.5" x2="890" y2="252" gradientUnits="userSpaceOnUse">
        <stop stop-color="#2F313A" stop-opacity="0"></stop>
        <stop offset="1" stop-color="#2F313A"></stop>
      </linearGradient>
      <linearGradient id="paint36_linear_789_925" x1="890" y1="-46.5" x2="890" y2="252" gradientUnits="userSpaceOnUse">
        <stop stop-color="#2F313A" stop-opacity="0"></stop>
        <stop offset="1" stop-color="#2F313A"></stop>
      </linearGradient>
      <linearGradient id="paint37_linear_789_925" x1="890" y1="-46.5" x2="890" y2="252" gradientUnits="userSpaceOnUse">
        <stop stop-color="#2F313A" stop-opacity="0"></stop>
        <stop offset="1" stop-color="#2F313A"></stop>
      </linearGradient>
      <linearGradient id="paint38_linear_789_925" x1="890" y1="-46.5" x2="890" y2="252" gradientUnits="userSpaceOnUse">
        <stop stop-color="#2F313A" stop-opacity="0"></stop>
        <stop offset="1" stop-color="#2F313A"></stop>
      </linearGradient>
      <linearGradient id="paint39_linear_789_925" x1="890" y1="-46.5" x2="890" y2="252" gradientUnits="userSpaceOnUse">
        <stop stop-color="#2F313A" stop-opacity="0"></stop>
        <stop offset="1" stop-color="#2F313A"></stop>
      </linearGradient>
      <linearGradient id="paint40_linear_789_925" x1="890" y1="-46.5" x2="890" y2="252" gradientUnits="userSpaceOnUse">
        <stop stop-color="#2F313A" stop-opacity="0"></stop>
        <stop offset="1" stop-color="#2F313A"></stop>
      </linearGradient>
      <linearGradient id="paint41_linear_789_925" x1="890" y1="-46.5" x2="890" y2="252" gradientUnits="userSpaceOnUse">
        <stop stop-color="#2F313A" stop-opacity="0"></stop>
        <stop offset="1" stop-color="#2F313A"></stop>
      </linearGradient>
      <linearGradient id="paint42_linear_789_925" x1="890" y1="-46.5" x2="890" y2="252" gradientUnits="userSpaceOnUse">
        <stop stop-color="#2F313A" stop-opacity="0"></stop>
        <stop offset="1" stop-color="#2F313A"></stop>
      </linearGradient>
      <linearGradient id="paint43_linear_789_925" x1="890" y1="-46.5" x2="890" y2="252" gradientUnits="userSpaceOnUse">
        <stop stop-color="#2F313A" stop-opacity="0"></stop>
        <stop offset="1" stop-color="#2F313A"></stop>
      </linearGradient>
      <linearGradient id="paint44_linear_789_925" x1="890" y1="-46.5" x2="890" y2="252" gradientUnits="userSpaceOnUse">
        <stop stop-color="#2F313A" stop-opacity="0"></stop>
        <stop offset="1" stop-color="#2F313A"></stop>
      </linearGradient>
      <linearGradient id="paint45_linear_789_925" x1="890" y1="-46.5" x2="890" y2="252" gradientUnits="userSpaceOnUse">
        <stop stop-color="#2F313A" stop-opacity="0"></stop>
        <stop offset="1" stop-color="#2F313A"></stop>
      </linearGradient>
      <linearGradient id="paint46_linear_789_925" x1="890" y1="-46.5" x2="890" y2="252" gradientUnits="userSpaceOnUse">
        <stop stop-color="#2F313A" stop-opacity="0"></stop>
        <stop offset="1" stop-color="#2F313A"></stop>
      </linearGradient>
      <linearGradient id="paint47_linear_789_925" x1="890" y1="-46.5" x2="890" y2="252" gradientUnits="userSpaceOnUse">
        <stop stop-color="#2F313A" stop-opacity="0"></stop>
        <stop offset="1" stop-color="#2F313A"></stop>
      </linearGradient>
      <linearGradient id="paint48_linear_789_925" x1="890" y1="-46.5" x2="890" y2="252" gradientUnits="userSpaceOnUse">
        <stop stop-color="#2F313A" stop-opacity="0"></stop>
        <stop offset="1" stop-color="#2F313A"></stop>
      </linearGradient>
      <linearGradient id="paint49_linear_789_925" x1="890" y1="-46.5" x2="890" y2="252" gradientUnits="userSpaceOnUse">
        <stop stop-color="#2F313A" stop-opacity="0"></stop>
        <stop offset="1" stop-color="#2F313A"></stop>
      </linearGradient>
      <linearGradient id="paint50_linear_789_925" x1="890" y1="-46.5" x2="890" y2="252" gradientUnits="userSpaceOnUse">
        <stop stop-color="#2F313A" stop-opacity="0"></stop>
        <stop offset="1" stop-color="#2F313A"></stop>
      </linearGradient>
      <linearGradient id="paint51_linear_789_925" x1="890" y1="-46.5" x2="890" y2="252" gradientUnits="userSpaceOnUse">
        <stop stop-color="#2F313A" stop-opacity="0"></stop>
        <stop offset="1" stop-color="#2F313A"></stop>
      </linearGradient>
      <linearGradient id="paint52_linear_789_925" x1="890" y1="-46.5" x2="890" y2="252" gradientUnits="userSpaceOnUse">
        <stop stop-color="#2F313A" stop-opacity="0"></stop>
        <stop offset="1" stop-color="#2F313A"></stop>
      </linearGradient>
      <linearGradient id="paint53_linear_789_925" x1="890" y1="-46.5" x2="890" y2="252" gradientUnits="userSpaceOnUse">
        <stop stop-color="#2F313A" stop-opacity="0"></stop>
        <stop offset="1" stop-color="#2F313A"></stop>
      </linearGradient>
      <linearGradient id="paint54_linear_789_925" x1="890" y1="-46.5" x2="890" y2="252" gradientUnits="userSpaceOnUse">
        <stop stop-color="#2F313A" stop-opacity="0"></stop>
        <stop offset="1" stop-color="#2F313A"></stop>
      </linearGradient>
      <linearGradient id="paint55_linear_789_925" x1="890" y1="-46.5" x2="890" y2="252" gradientUnits="userSpaceOnUse">
        <stop stop-color="#2F313A" stop-opacity="0"></stop>
        <stop offset="1" stop-color="#2F313A"></stop>
      </linearGradient>
      <linearGradient id="paint56_linear_789_925" x1="890" y1="-46.5" x2="890" y2="252" gradientUnits="userSpaceOnUse">
        <stop stop-color="#2F313A" stop-opacity="0"></stop>
        <stop offset="1" stop-color="#2F313A"></stop>
      </linearGradient>
      <linearGradient id="paint57_linear_789_925" x1="890" y1="-46.5" x2="890" y2="252" gradientUnits="userSpaceOnUse">
        <stop stop-color="#2F313A" stop-opacity="0"></stop>
        <stop offset="1" stop-color="#2F313A"></stop>
      </linearGradient>
      <linearGradient id="paint58_linear_789_925" x1="890" y1="-46.5" x2="890" y2="252" gradientUnits="userSpaceOnUse">
        <stop stop-color="#2F313A" stop-opacity="0"></stop>
        <stop offset="1" stop-color="#2F313A"></stop>
      </linearGradient>
      <linearGradient id="paint59_linear_789_925" x1="890" y1="-46.5" x2="890" y2="252" gradientUnits="userSpaceOnUse">
        <stop stop-color="#2F313A" stop-opacity="0"></stop>
        <stop offset="1" stop-color="#2F313A"></stop>
      </linearGradient>
      <linearGradient id="paint60_linear_789_925" x1="890" y1="-46.5" x2="890" y2="252" gradientUnits="userSpaceOnUse">
        <stop stop-color="#2F313A" stop-opacity="0"></stop>
        <stop offset="1" stop-color="#2F313A"></stop>
      </linearGradient>
      <linearGradient id="paint61_linear_789_925" x1="890" y1="-46.5" x2="890" y2="252" gradientUnits="userSpaceOnUse">
        <stop stop-color="#2F313A" stop-opacity="0"></stop>
        <stop offset="1" stop-color="#2F313A"></stop>
      </linearGradient>
      <linearGradient id="paint62_linear_789_925" x1="890" y1="-46.5" x2="890" y2="252" gradientUnits="userSpaceOnUse">
        <stop stop-color="#2F313A" stop-opacity="0"></stop>
        <stop offset="1" stop-color="#2F313A"></stop>
      </linearGradient>
      <linearGradient id="paint63_linear_789_925" x1="890" y1="-46.5" x2="890" y2="252" gradientUnits="userSpaceOnUse">
        <stop stop-color="#2F313A" stop-opacity="0"></stop>
        <stop offset="1" stop-color="#2F313A"></stop>
      </linearGradient>
      <linearGradient id="paint64_linear_789_925" x1="890" y1="-46.5" x2="890" y2="252" gradientUnits="userSpaceOnUse">
        <stop stop-color="#2F313A" stop-opacity="0"></stop>
        <stop offset="1" stop-color="#2F313A"></stop>
      </linearGradient>
      <linearGradient id="paint65_linear_789_925" x1="890" y1="-46.5" x2="890" y2="252" gradientUnits="userSpaceOnUse">
        <stop stop-color="#2F313A" stop-opacity="0"></stop>
        <stop offset="1" stop-color="#2F313A"></stop>
      </linearGradient>
      <linearGradient id="paint66_linear_789_925" x1="890" y1="-46.5" x2="890" y2="252" gradientUnits="userSpaceOnUse">
        <stop stop-color="#2F313A" stop-opacity="0"></stop>
        <stop offset="1" stop-color="#2F313A"></stop>
      </linearGradient>
      <linearGradient id="paint67_linear_789_925" x1="890" y1="-46.5" x2="890" y2="252" gradientUnits="userSpaceOnUse">
        <stop stop-color="#2F313A" stop-opacity="0"></stop>
        <stop offset="1" stop-color="#2F313A"></stop>
      </linearGradient>
      <linearGradient id="paint68_linear_789_925" x1="890" y1="-46.5" x2="890" y2="252" gradientUnits="userSpaceOnUse">
        <stop stop-color="#2F313A" stop-opacity="0"></stop>
        <stop offset="1" stop-color="#2F313A"></stop>
      </linearGradient>
      <linearGradient id="paint69_linear_789_925" x1="890" y1="-46.5" x2="890" y2="252" gradientUnits="userSpaceOnUse">
        <stop stop-color="#2F313A" stop-opacity="0"></stop>
        <stop offset="1" stop-color="#2F313A"></stop>
      </linearGradient>
      <linearGradient id="paint70_linear_789_925" x1="890" y1="-46.5" x2="890" y2="252" gradientUnits="userSpaceOnUse">
        <stop stop-color="#2F313A" stop-opacity="0"></stop>
        <stop offset="1" stop-color="#2F313A"></stop>
      </linearGradient>
      <linearGradient id="paint71_linear_789_925" x1="890" y1="-46.5" x2="890" y2="252" gradientUnits="userSpaceOnUse">
        <stop stop-color="#2F313A" stop-opacity="0"></stop>
        <stop offset="1" stop-color="#2F313A"></stop>
      </linearGradient>
      <linearGradient id="paint72_linear_789_925" x1="890" y1="-46.5" x2="890" y2="252" gradientUnits="userSpaceOnUse">
        <stop stop-color="#2F313A" stop-opacity="0"></stop>
        <stop offset="1" stop-color="#2F313A"></stop>
      </linearGradient>
      <linearGradient id="paint73_linear_789_925" x1="890" y1="-46.5" x2="890" y2="252" gradientUnits="userSpaceOnUse">
        <stop stop-color="#2F313A" stop-opacity="0"></stop>
        <stop offset="1" stop-color="#2F313A"></stop>
      </linearGradient>
      <linearGradient id="paint74_linear_789_925" x1="890" y1="-46.5" x2="890" y2="252" gradientUnits="userSpaceOnUse">
        <stop stop-color="#2F313A" stop-opacity="0"></stop>
        <stop offset="1" stop-color="#2F313A"></stop>
      </linearGradient>
      <linearGradient id="paint75_linear_789_925" x1="890" y1="-46.5" x2="890" y2="252" gradientUnits="userSpaceOnUse">
        <stop stop-color="#2F313A" stop-opacity="0"></stop>
        <stop offset="1" stop-color="#2F313A"></stop>
      </linearGradient>
      <linearGradient id="paint76_linear_789_925" x1="890" y1="-46.5" x2="890" y2="252" gradientUnits="userSpaceOnUse">
        <stop stop-color="#2F313A" stop-opacity="0"></stop>
        <stop offset="1" stop-color="#2F313A"></stop>
      </linearGradient>
      <linearGradient id="paint77_linear_789_925" x1="890" y1="-46.5" x2="890" y2="252" gradientUnits="userSpaceOnUse">
        <stop stop-color="#2F313A" stop-opacity="0"></stop>
        <stop offset="1" stop-color="#2F313A"></stop>
      </linearGradient>
      <linearGradient id="paint78_linear_789_925" x1="890" y1="-46.5" x2="890" y2="252" gradientUnits="userSpaceOnUse">
        <stop stop-color="#2F313A" stop-opacity="0"></stop>
        <stop offset="1" stop-color="#2F313A"></stop>
      </linearGradient>
      <linearGradient id="paint79_linear_789_925" x1="890" y1="-46.5" x2="890" y2="252" gradientUnits="userSpaceOnUse">
        <stop stop-color="#2F313A" stop-opacity="0"></stop>
        <stop offset="1" stop-color="#2F313A"></stop>
      </linearGradient>
      <linearGradient id="paint80_linear_789_925" x1="890" y1="-46.5" x2="890" y2="252" gradientUnits="userSpaceOnUse">
        <stop stop-color="#2F313A" stop-opacity="0"></stop>
        <stop offset="1" stop-color="#2F313A"></stop>
      </linearGradient>
      <linearGradient id="paint81_linear_789_925" x1="890" y1="-46.5" x2="890" y2="252" gradientUnits="userSpaceOnUse">
        <stop stop-color="#2F313A" stop-opacity="0"></stop>
        <stop offset="1" stop-color="#2F313A"></stop>
      </linearGradient>
      <linearGradient id="paint82_linear_789_925" x1="890" y1="-46.5" x2="890" y2="252" gradientUnits="userSpaceOnUse">
        <stop stop-color="#2F313A" stop-opacity="0"></stop>
        <stop offset="1" stop-color="#2F313A"></stop>
      </linearGradient>
      <linearGradient id="paint83_linear_789_925" x1="890" y1="-46.5" x2="890" y2="252" gradientUnits="userSpaceOnUse">
        <stop stop-color="#2F313A" stop-opacity="0"></stop>
        <stop offset="1" stop-color="#2F313A"></stop>
      </linearGradient>
      <linearGradient id="paint84_linear_789_925" x1="890" y1="-46.5" x2="890" y2="252" gradientUnits="userSpaceOnUse">
        <stop stop-color="#2F313A" stop-opacity="0"></stop>
        <stop offset="1" stop-color="#2F313A"></stop>
      </linearGradient>
      <linearGradient id="paint85_linear_789_925" x1="890" y1="-46.5" x2="890" y2="252" gradientUnits="userSpaceOnUse">
        <stop stop-color="#2F313A" stop-opacity="0"></stop>
        <stop offset="1" stop-color="#2F313A"></stop>
      </linearGradient>
      <linearGradient id="paint86_linear_789_925" x1="890" y1="-46.5" x2="890" y2="252" gradientUnits="userSpaceOnUse">
        <stop stop-color="#2F313A" stop-opacity="0"></stop>
        <stop offset="1" stop-color="#2F313A"></stop>
      </linearGradient>
      <linearGradient id="paint87_linear_789_925" x1="890" y1="-46.5" x2="890" y2="252" gradientUnits="userSpaceOnUse">
        <stop stop-color="#2F313A" stop-opacity="0"></stop>
        <stop offset="1" stop-color="#2F313A"></stop>
      </linearGradient>
      <linearGradient id="paint88_linear_789_925" x1="890" y1="-46.5" x2="890" y2="252" gradientUnits="userSpaceOnUse">
        <stop stop-color="#2F313A" stop-opacity="0"></stop>
        <stop offset="1" stop-color="#2F313A"></stop>
      </linearGradient>
      <linearGradient id="paint89_linear_789_925" x1="890" y1="-46.5" x2="890" y2="252" gradientUnits="userSpaceOnUse">
        <stop stop-color="#2F313A" stop-opacity="0"></stop>
        <stop offset="1" stop-color="#2F313A"></stop>
      </linearGradient>
    </defs>
  </symbol>
</svg>